<?xml version="1.0" standalone="no"?>
<!DOCTYPE svg PUBLIC "-//W3C//DTD SVG 20010904//EN"
 "http://www.w3.org/TR/2001/REC-SVG-20010904/DTD/svg10.dtd">
<svg version="1.0" xmlns="http://www.w3.org/2000/svg"
 width="1459.000000pt" height="1259.000000pt" viewBox="0 0 1459.000000 1259.000000"
 preserveAspectRatio="xMidYMid meet">

<g transform="translate(0.000000,1259.000000) scale(0.100000,-0.100000)"
fill="#000000" stroke="none">
<path d="M7023 11115 c-59 -25 -63 -65 -12 -110 12 -11 39 -42 60 -68 49 -62
53 -110 12 -149 -40 -36 -80 -47 -230 -63 -172 -19 -231 -41 -304 -115 -72
-71 -99 -148 -100 -283 l-1 -88 -34 40 c-93 108 -292 174 -456 151 -260 -36
-417 -264 -394 -570 4 -47 11 -103 16 -125 12 -55 -11 -92 -78 -126 l-53 -26
35 -17 c46 -21 57 -20 101 10 l38 25 -7 -63 c-18 -167 -52 -204 -216 -237 -67
-14 -116 -42 -132 -76 -27 -59 65 -117 186 -117 176 1 338 100 410 252 28 59
31 74 31 160 l-1 95 62 1 c66 2 142 30 182 67 55 51 92 171 72 232 -13 40 -21
42 -60 15 -69 -49 -190 -65 -256 -34 -31 15 -79 62 -71 70 2 2 29 -5 60 -16
125 -44 232 -12 257 78 9 35 -1 72 -19 72 -5 0 -28 -16 -51 -35 -73 -61 -151
-55 -203 17 -39 52 -15 147 44 179 19 10 19 9 -1 -28 -11 -21 -20 -53 -20 -71
0 -69 88 -112 152 -75 40 23 46 53 18 93 -42 58 -8 100 80 100 92 -1 167 -58
250 -193 l48 -79 18 29 c48 76 106 112 194 120 l57 6 -24 43 c-34 61 -34 121
1 151 36 31 66 29 111 -7 45 -36 49 -36 76 -9 18 18 20 29 15 66 -8 62 -25 93
-66 121 -40 28 -103 27 -160 -1 -39 -20 -46 -17 -30 13 30 56 137 64 270 20
110 -37 194 -40 274 -10 114 43 166 100 166 182 0 99 -77 206 -188 260 -59 29
-64 33 -39 36 15 2 52 -8 83 -22 l56 -26 -17 28 c-31 48 -69 84 -110 103 -48
22 -60 23 -102 4z"/>
<path d="M7910 11107 c-39 -20 -126 -114 -116 -125 2 -2 27 8 55 22 51 26 101
34 101 16 0 -5 -7 -10 -15 -10 -29 0 -93 -39 -139 -86 -66 -66 -90 -116 -90
-190 -1 -80 28 -120 120 -165 94 -47 191 -51 294 -15 92 33 197 44 240 26 28
-12 70 -53 70 -70 0 -4 -21 3 -47 16 -79 41 -165 25 -203 -38 -37 -60 -22
-169 23 -168 7 1 28 14 47 30 97 84 179 -28 109 -148 -24 -42 -25 -42 12 -42
85 0 179 -53 215 -122 l16 -30 57 89 c91 140 167 192 268 180 75 -8 91 -40 52
-104 -28 -44 -15 -76 36 -93 42 -14 72 -8 108 21 21 16 27 29 27 60 0 22 -7
53 -15 69 -9 17 -11 30 -6 30 13 0 58 -55 66 -81 18 -57 -33 -140 -95 -154
-44 -10 -80 1 -129 41 -25 19 -49 33 -55 31 -20 -6 -17 -70 4 -105 38 -62 134
-79 240 -42 30 10 56 17 58 16 1 -2 -9 -17 -23 -34 -61 -73 -206 -68 -317 10
-29 20 -48 -7 -48 -67 0 -153 103 -256 260 -259 69 -1 69 -1 62 -26 -14 -49
-5 -154 18 -213 76 -199 377 -331 550 -242 16 8 37 27 47 41 37 57 -24 108
-157 134 -121 22 -163 70 -180 203 -5 39 -10 76 -10 80 0 5 13 -1 28 -12 43
-30 76 -35 111 -16 36 18 34 30 -8 38 -15 3 -43 21 -61 38 -32 32 -32 33 -23
98 4 36 8 122 7 191 0 129 -12 185 -56 274 -25 48 -101 131 -150 162 -178 113
-469 79 -621 -72 l-44 -45 -6 88 c-7 106 -26 174 -67 235 -61 92 -151 132
-344 152 -184 20 -256 54 -256 120 1 42 16 66 84 136 63 66 68 90 26 121 -42
31 -80 33 -130 6z"/>
<path d="M7488 10559 c-22 -12 -24 -71 -4 -88 12 -10 7 -24 -30 -83 -24 -40
-48 -76 -53 -81 -4 -4 -33 20 -65 57 -50 57 -56 67 -46 86 12 22 5 60 -14 72
-6 4 -23 8 -38 8 -58 0 -72 -88 -18 -105 21 -7 22 -11 15 -88 -4 -45 -10 -86
-15 -90 -4 -5 -43 11 -86 35 -71 39 -79 47 -76 70 4 29 -27 68 -53 68 -17 0
-65 -43 -65 -58 0 -22 39 -56 66 -57 28 -2 29 -3 43 -89 7 -47 11 -89 8 -92
-3 -4 -37 -1 -74 5 -123 21 -123 21 -123 45 0 25 -28 56 -51 56 -26 0 -59 -30
-59 -54 0 -37 23 -59 61 -59 30 1 47 -12 145 -109 l111 -109 81 54 c121 81
224 112 372 112 92 0 130 -5 190 -23 82 -26 163 -67 223 -115 l39 -30 113 113
c97 96 116 112 137 107 57 -15 92 58 48 98 -28 26 -71 10 -84 -30 -6 -17 -11
-31 -12 -33 -3 -6 -185 -34 -190 -29 -3 3 0 34 6 68 21 124 19 120 45 113 28
-7 65 25 65 56 0 24 -34 60 -55 60 -27 0 -66 -47 -60 -72 5 -20 -4 -28 -76
-66 -44 -24 -83 -42 -85 -39 -2 2 -9 42 -15 88 -8 63 -7 85 2 88 21 7 49 41
49 60 0 30 -29 52 -64 49 -40 -4 -59 -38 -44 -80 10 -29 8 -33 -49 -90 l-59
-59 -48 78 c-37 61 -45 81 -37 93 22 30 24 44 10 69 -16 28 -53 38 -81 20z"/>
<path d="M6580 10089 c-54 -22 -100 -85 -100 -135 0 -28 64 -99 170 -188 l45
-38 -100 52 c-55 29 -154 88 -220 131 -66 43 -120 77 -121 76 -1 -1 3 -35 9
-76 l10 -74 111 -52 c61 -28 159 -71 219 -95 83 -34 107 -48 107 -63 0 -10 -3
-17 -7 -15 -5 2 -35 17 -68 34 -85 45 -158 64 -239 64 -79 0 -109 -12 -139
-52 -18 -24 -19 -32 -8 -68 6 -22 23 -47 36 -56 38 -25 31 -37 -20 -32 -52 6
-58 -6 -22 -47 14 -17 36 -28 62 -31 22 -3 47 -8 55 -11 29 -10 -23 -22 -69
-16 -36 5 -42 3 -36 -8 22 -38 52 -59 101 -70 59 -13 68 -25 29 -35 -14 -3
-25 -10 -25 -14 0 -17 73 -42 106 -37 38 6 43 1 17 -19 -16 -12 -12 -13 30
-14 61 0 113 24 132 61 20 38 19 43 -7 25 -34 -24 -41 -19 -18 12 32 44 35 82
8 122 -29 42 -50 48 -63 18 -18 -38 -34 -33 -28 10 4 31 1 44 -21 68 -18 21
-25 25 -26 13 0 -9 -9 -27 -21 -40 l-21 -24 6 25 c18 71 18 77 0 94 -17 17
-18 17 -37 -8 -25 -35 -51 -33 -70 6 -25 52 3 85 80 94 82 10 159 -36 103 -62
-18 -8 -14 -15 41 -76 34 -38 66 -68 72 -68 7 0 52 16 101 37 85 35 89 36 102
18 8 -10 14 -22 14 -25 0 -3 -35 -25 -79 -48 l-78 -42 -6 -57 c-3 -32 -5 -59
-3 -61 2 -1 87 53 190 121 l186 123 -77 54 c-86 60 -288 221 -373 299 -40 35
-52 52 -44 60 8 8 56 -24 176 -119 152 -118 170 -130 207 -130 l41 0 0 68 0
69 -66 12 c-117 21 -224 72 -224 105 0 7 18 20 40 29 51 20 53 46 4 83 -28 21
-49 29 -92 31 -32 1 -68 -2 -82 -8z"/>
<path d="M8325 10088 c-31 -17 -75 -60 -75 -74 0 -7 20 -22 46 -33 40 -18 44
-23 35 -40 -15 -28 -103 -66 -198 -87 l-83 -17 0 -69 0 -68 38 0 c32 0 57 16
202 130 91 71 168 130 173 130 22 0 0 -34 -50 -81 -71 -64 -274 -227 -365
-292 -38 -26 -68 -50 -68 -52 0 -4 292 -198 358 -239 9 -5 12 7 12 51 l0 58
-85 45 c-47 25 -85 48 -85 51 0 3 8 13 18 22 17 16 24 15 106 -19 49 -19 94
-34 100 -32 7 2 39 32 70 68 54 61 57 65 37 74 -72 32 47 81 137 56 55 -14 71
-44 48 -89 -20 -38 -52 -41 -68 -6 -13 29 -21 31 -38 10 -9 -10 -10 -31 -6
-67 6 -44 5 -50 -7 -39 -8 6 -18 24 -22 38 l-6 26 -22 -22 c-17 -16 -22 -32
-20 -66 2 -50 -11 -59 -29 -20 -14 32 -23 31 -53 -1 -31 -33 -33 -86 -5 -131
19 -33 15 -44 -8 -21 -16 16 -29 1 -16 -20 24 -39 75 -62 133 -61 48 0 53 2
34 11 -35 17 -27 25 25 24 31 -1 58 6 77 18 l30 20 -33 8 c-45 12 -40 26 13
34 48 7 88 32 106 66 11 20 9 21 -21 15 -34 -7 -80 0 -80 13 0 4 21 10 47 13
37 4 54 12 75 36 15 17 28 36 28 41 0 5 -21 7 -50 3 -27 -3 -50 -3 -50 0 0 3
16 21 35 40 55 55 46 125 -20 153 -82 34 -234 9 -352 -57 -62 -34 -63 -34 -63
-11 0 14 19 26 73 47 39 15 138 57 218 92 l147 65 11 75 c6 42 10 77 9 78 -2
2 -55 -32 -118 -74 -102 -67 -342 -200 -315 -174 6 5 51 44 102 87 98 83 103
90 103 141 0 41 -48 101 -97 121 -39 17 -110 18 -138 2z"/>
<path d="M7355 10011 c-33 -10 -77 -25 -98 -34 -39 -17 -157 -96 -157 -105 0
-3 9 -16 21 -28 l21 -22 51 39 c115 87 288 125 430 96 90 -18 176 -55 229 -97
44 -36 49 -36 74 -9 18 20 18 21 -16 50 -48 40 -162 95 -235 114 -81 21 -243
19 -320 -4z"/>
<path d="M7486 9911 c-22 -24 -45 -87 -46 -123 0 -23 -5 -28 -24 -28 -63 0
-134 -88 -122 -150 11 -61 20 -67 56 -37 37 32 39 32 68 11 20 -14 22 -23 22
-110 l0 -94 80 0 80 0 0 86 c0 88 8 117 35 128 20 7 54 -9 77 -37 16 -21 16
-20 28 20 26 84 -21 166 -101 179 -34 6 -39 10 -39 34 0 62 -45 140 -80 140
-9 0 -25 -9 -34 -19z"/>
<path d="M7272 9487 c-46 -49 -14 -121 53 -121 27 0 43 6 56 23 59 73 -45 166
-109 98z"/>
<path d="M7653 9484 c-20 -20 -24 -31 -19 -57 9 -44 29 -61 72 -61 67 0 99 77
51 122 -31 30 -72 28 -104 -4z"/>
<path d="M7089 9440 c-29 -17 -43 -65 -27 -97 40 -85 174 -29 138 58 -19 45
-70 63 -111 39z"/>
<path d="M7850 9430 c-45 -45 -13 -130 50 -130 41 0 70 31 70 75 0 44 -29 75
-70 75 -17 0 -39 -9 -50 -20z"/>
<path d="M5983 9390 c-60 -27 -85 -71 -80 -138 6 -84 56 -122 133 -100 33 9
34 10 28 48 -8 49 7 70 51 70 36 0 65 -26 65 -58 0 -28 -54 -89 -101 -113 -45
-22 -144 -44 -244 -53 -38 -4 -95 -12 -125 -18 -268 -52 -445 -373 -330 -598
45 -88 149 -161 277 -194 99 -26 110 -22 63 20 -91 83 -122 223 -67 316 31 54
78 80 144 80 102 0 167 -108 103 -172 -28 -28 -40 -25 -28 8 26 68 -19 112
-92 92 -70 -19 -102 -88 -80 -171 14 -53 51 -104 90 -124 41 -21 116 -19 166
5 52 25 119 96 145 153 56 125 -16 289 -159 359 -68 33 -186 38 -244 9 -55
-26 -110 -82 -142 -146 -24 -47 -25 -48 -26 -20 0 41 51 126 99 164 70 56 126
75 221 76 73 0 93 -4 141 -28 122 -59 197 -185 234 -392 7 -39 8 -36 31 62 13
56 35 132 50 168 14 37 24 68 22 69 -1 2 -21 15 -43 30 l-40 28 55 -5 56 -5
34 65 c18 36 57 96 87 134 29 38 53 71 53 74 0 19 -275 -15 -415 -52 -11 -3 5
11 36 32 98 65 130 143 93 221 -37 77 -118 82 -247 16 -4 -2 -2 7 4 21 14 31
48 47 102 48 l42 1 -40 19 c-50 23 -70 23 -122 -1z"/>
<path d="M8947 9395 c-57 -20 -56 -25 2 -25 42 0 57 -5 76 -25 14 -13 25 -29
25 -35 0 -13 3 -14 -54 15 -66 34 -125 33 -165 -1 -84 -70 -54 -186 68 -266
25 -16 38 -27 28 -24 -45 14 -250 47 -332 53 -77 5 -88 4 -79 -8 59 -73 119
-162 141 -208 14 -31 27 -57 28 -59 2 -1 28 1 59 6 31 5 56 8 56 6 0 -2 -20
-17 -44 -33 l-44 -31 25 -62 c14 -34 35 -106 47 -160 11 -54 23 -98 26 -98 3
0 12 37 21 83 31 158 114 284 224 337 73 36 197 36 275 -1 102 -48 171 -128
184 -214 l6 -40 -30 57 c-61 117 -138 167 -255 168 -93 0 -172 -36 -237 -109
-78 -87 -97 -184 -54 -276 32 -69 69 -111 130 -145 86 -50 172 -38 229 29 34
41 50 94 44 148 -6 53 -36 89 -88 105 -32 9 -42 8 -63 -6 -31 -20 -41 -52 -27
-89 13 -33 2 -35 -27 -4 -30 31 -29 88 1 122 63 73 195 59 247 -28 59 -96 18
-261 -83 -336 l-32 -23 52 6 c111 14 231 72 294 143 167 191 49 537 -220 642
-28 12 -110 27 -186 36 -215 25 -309 64 -342 142 -12 31 -12 38 2 59 22 33 78
34 100 0 12 -18 13 -30 5 -50 -9 -25 -7 -28 26 -42 57 -24 113 6 134 72 23 67
-15 136 -92 169 -45 18 -52 18 -101 0z"/>
<path d="M6902 9334 c-33 -23 -31 -86 4 -113 36 -28 60 -26 95 8 34 35 36 59
8 95 -24 30 -72 35 -107 10z"/>
<path d="M8025 9330 c-28 -31 -24 -79 9 -107 33 -28 56 -29 90 -2 33 26 36 79
6 109 -26 26 -81 26 -105 0z"/>
<path d="M7388 9310 c-115 -20 -246 -74 -348 -144 -52 -35 -202 -177 -231
-218 l-20 -28 330 -395 c182 -217 331 -397 331 -400 0 -3 -74 -5 -164 -5 -150
0 -165 2 -190 21 -18 14 -26 30 -26 52 0 31 31 94 54 110 7 5 2 16 -17 32 -43
38 -97 34 -144 -9 -35 -32 -37 -38 -41 -105 l-4 -71 -29 20 c-129 93 -300 54
-371 -85 -18 -34 -20 -51 -15 -130 13 -185 60 -361 147 -543 48 -100 125 -222
141 -222 4 0 153 177 330 393 177 215 326 396 330 402 5 5 9 -83 9 -203 0
-213 0 -213 -25 -237 -33 -34 -79 -33 -101 0 -22 34 -32 32 -51 -12 -10 -25
-14 -59 -11 -105 3 -61 7 -72 35 -100 24 -24 42 -32 81 -36 l50 -4 -26 -56
c-55 -120 -37 -265 44 -372 56 -73 66 -76 183 -57 200 33 350 113 514 277 53
53 97 101 97 107 0 5 -148 187 -330 404 -181 217 -330 397 -330 402 0 14 298
8 335 -7 56 -24 60 -103 8 -158 -30 -31 -23 -47 27 -68 41 -17 91 -5 123 28
29 30 49 101 40 144 -5 28 9 39 23 17 3 -6 30 -22 58 -35 106 -50 223 -18 298
82 21 27 38 52 38 57 0 4 -216 7 -480 7 l-480 0 0 230 c0 252 6 281 56 300 29
12 55 1 79 -33 16 -21 16 -21 30 -3 25 34 38 116 26 163 -19 69 -48 95 -113
101 l-56 4 27 57 c23 49 26 69 26 156 0 94 -2 103 -33 161 -18 34 -49 76 -68
95 l-34 33 0 -632 0 -632 -30 0 -30 0 0 239 c0 235 0 240 -22 265 -37 40 -64
42 -99 7 -17 -17 -33 -31 -35 -31 -14 0 -36 81 -36 132 0 96 46 148 132 148
l39 0 -27 58 c-23 49 -27 70 -27 152 0 83 3 102 27 150 15 31 44 75 63 98 l37
42 -39 -1 c-21 -1 -59 -5 -85 -9z m72 -1280 l0 -30 -154 0 c-159 0 -209 -9
-226 -40 -21 -39 -4 -108 34 -139 23 -19 20 -29 -16 -51 -88 -53 -178 14 -178
133 0 57 -8 69 -29 43 -6 -8 -35 -24 -63 -36 -77 -33 -151 -25 -220 23 -51 35
-98 90 -98 115 0 9 115 12 475 12 l475 0 0 -30z m120 -199 c0 -141 4 -240 11
-260 20 -57 83 -70 119 -24 21 27 22 27 36 8 38 -52 41 -148 7 -206 -22 -37
-75 -62 -119 -57 -19 2 -33 2 -31 -1 58 -104 74 -237 38 -331 -21 -56 -86
-150 -108 -158 -10 -3 -13 127 -13 627 l0 631 30 0 30 0 0 -229z"/>
<path d="M6745 9205 c-50 -49 -20 -125 49 -125 40 0 76 37 76 77 0 32 -42 73
-75 73 -14 0 -37 -11 -50 -25z"/>
<path d="M8191 9213 c-54 -45 -24 -133 45 -133 69 0 99 76 49 125 -28 29 -64
32 -94 8z"/>
<path d="M6612 9057 c-28 -30 -29 -80 -2 -107 48 -48 139 -2 126 63 -12 64
-82 88 -124 44z"/>
<path d="M8329 9070 c-29 -17 -43 -65 -27 -97 27 -56 109 -57 132 -1 17 39 11
63 -22 88 -27 22 -57 25 -83 10z"/>
<path d="M7923 8533 c-176 -214 -322 -394 -327 -400 -6 -10 30 -13 163 -13
158 0 173 2 191 20 35 35 25 105 -22 156 -19 21 -19 22 8 43 15 12 41 21 60
21 81 0 126 -54 126 -151 l0 -60 32 21 c54 37 97 51 150 51 85 0 149 -35 208
-115 l31 -41 -7 105 c-10 181 -58 353 -151 545 -51 106 -116 205 -135 205 -5
0 -152 -174 -327 -387z"/>
<path d="M6499 8881 c-34 -35 -36 -59 -8 -95 26 -33 79 -36 109 -6 30 30 27
83 -6 109 -36 28 -60 26 -95 -8z"/>
<path d="M8436 8889 c-54 -43 -23 -129 47 -129 69 0 96 81 43 127 -33 28 -56
29 -90 2z"/>
<path d="M6428 8714 c-53 -28 -48 -107 7 -130 88 -36 149 87 65 131 -35 18
-38 18 -72 -1z"/>
<path d="M8528 8714 c-53 -28 -48 -107 7 -130 88 -36 149 87 65 131 -35 18
-38 18 -72 -1z"/>
<path d="M6362 8523 c-7 -3 -19 -18 -28 -35 -20 -39 -4 -81 37 -98 40 -17 76
-5 94 30 35 67 -30 133 -103 103z"/>
<path d="M8580 8510 c-24 -24 -27 -82 -4 -104 23 -23 59 -29 86 -15 31 16 38
28 38 67 0 41 -30 72 -70 72 -17 0 -39 -9 -50 -20z"/>
<path d="M6315 8305 c-14 -13 -25 -36 -25 -50 0 -14 11 -37 25 -50 13 -14 36
-25 50 -25 14 0 37 11 50 25 14 13 25 36 25 50 0 14 -11 37 -25 50 -13 14 -36
25 -50 25 -14 0 -37 -11 -50 -25z"/>
<path d="M8616 8309 c-34 -27 -35 -71 -1 -104 13 -14 36 -25 50 -25 14 0 37
11 50 25 14 13 25 36 25 50 0 33 -41 75 -73 75 -13 0 -36 -9 -51 -21z"/>
<path d="M6067 8250 c-22 -19 -39 -46 -47 -75 -11 -41 -15 -45 -44 -45 -42 -1
-112 -33 -126 -59 -17 -33 31 -76 103 -91 54 -11 57 -13 67 -49 19 -72 95
-120 160 -101 47 14 50 19 24 47 -31 34 -29 73 6 90 15 8 64 13 123 13 l97 0
0 75 0 75 -103 0 c-144 0 -180 29 -121 99 l26 31 -27 10 c-51 19 -102 12 -138
-20z"/>
<path d="M8822 8270 l-24 -10 26 -31 c59 -70 23 -99 -122 -99 l-103 0 3 -77 3
-78 113 -5 c85 -4 115 -9 122 -20 15 -23 12 -36 -16 -70 -15 -17 -25 -32 -23
-34 2 -2 21 -9 42 -14 73 -20 152 28 163 99 6 36 8 37 67 49 76 15 125 57 107
91 -14 26 -84 58 -128 59 -33 0 -35 3 -46 53 -4 15 -19 41 -34 58 -23 26 -37
32 -78 35 -27 2 -60 -1 -72 -6z"/>
<path d="M5261 8000 c-85 -18 -158 -76 -201 -161 l-20 -38 43 19 c23 11 59 20
79 20 39 0 45 -6 108 -96 62 -91 156 -127 229 -89 86 44 90 193 7 283 -49 55
-153 81 -245 62z"/>
<path d="M9639 7997 c-86 -24 -138 -79 -158 -167 -23 -101 36 -190 125 -190
25 0 57 6 73 14 33 18 104 93 125 135 29 55 79 65 154 31 23 -10 42 -16 42
-11 0 14 -57 96 -86 123 -64 60 -188 89 -275 65z"/>
<path d="M6333 7918 c-28 -13 -47 -60 -39 -93 9 -37 67 -61 104 -43 53 26 55
106 2 133 -33 17 -37 17 -67 3z"/>
<path d="M8628 7914 c-54 -29 -49 -106 8 -130 29 -12 39 -12 62 -2 53 26 55
106 2 133 -35 18 -38 18 -72 -1z"/>
<path d="M5674 7886 c-87 -38 -86 -166 2 -166 32 0 74 28 74 49 0 34 69 53
111 30 18 -9 19 -8 11 8 -16 29 -64 71 -95 82 -37 14 -65 13 -103 -3z"/>
<path d="M9250 7878 c-24 -13 -55 -38 -69 -57 -24 -32 -25 -34 -4 -23 38 21
91 15 104 -10 23 -45 52 -68 84 -68 42 0 65 27 65 76 0 51 -21 81 -68 94 -52
14 -62 13 -112 -12z"/>
<path d="M5055 7766 c-60 -26 -115 -112 -115 -181 0 -16 3 -15 18 10 33 53 74
74 94 48 72 -91 109 -103 159 -54 21 22 29 39 29 66 0 98 -91 152 -185 111z"/>
<path d="M9844 7747 c-36 -32 -39 -40 -39 -87 0 -44 4 -55 28 -76 44 -38 74
-32 128 27 53 57 64 57 115 -3 l27 -33 -6 37 c-15 96 -77 157 -166 166 -45 4
-52 1 -87 -31z"/>
<path d="M6006 7747 c-18 -13 -17 -23 18 -248 20 -129 39 -243 41 -253 2 -10
0 -15 -4 -10 -5 5 -32 101 -60 214 -63 248 -66 257 -105 281 -67 41 -146 7
-146 -62 0 -27 36 -129 105 -291 8 -21 13 -38 11 -38 -18 0 -156 261 -156 296
0 12 -7 15 -26 11 -14 -2 -42 -1 -62 4 -20 4 -38 7 -39 5 -2 -2 6 -32 16 -67
25 -78 73 -161 143 -242 41 -48 46 -57 22 -40 -69 49 -180 194 -204 269 l-11
34 -32 -17 c-23 -12 -55 -17 -109 -16 l-78 1 31 -59 c40 -75 126 -161 264
-265 147 -112 162 -124 150 -124 -6 0 -45 20 -87 44 -182 103 -286 201 -369
346 l-47 81 -22 -36 c-12 -19 -29 -39 -37 -44 -13 -7 -14 -14 -3 -46 8 -25 10
-62 6 -111 l-7 -73 51 -40 c81 -64 203 -115 400 -167 98 -26 70 -31 -47 -9
-165 31 -291 87 -408 181 -85 67 -120 71 -171 20 -38 -38 -44 -78 -20 -124 58
-111 226 -162 540 -162 88 0 157 -2 155 -4 -7 -7 -316 -24 -674 -37 -356 -13
-351 -12 -339 -79 16 -86 70 -140 142 -140 89 0 407 53 507 85 11 3 8 -1 -8
-10 -30 -17 -307 -99 -374 -110 -52 -8 -54 -23 -9 -63 44 -39 119 -56 205 -48
68 6 96 18 416 184 124 64 207 89 247 72 22 -8 22 -9 -4 -9 -57 -2 -160 -52
-348 -170 -107 -67 -199 -126 -204 -131 -12 -12 38 -76 74 -95 72 -37 139 -10
299 119 106 85 233 174 271 188 8 4 32 13 53 22 20 9 37 15 37 12 0 -2 -36
-24 -80 -50 -108 -63 -221 -171 -260 -249 -70 -139 -21 -290 112 -347 74 -32
167 -26 234 15 43 27 123 119 112 130 -2 2 -26 -2 -53 -10 -95 -29 -175 -12
-218 46 -28 38 -33 110 -13 164 25 64 32 62 28 -8 -5 -97 38 -160 119 -173 41
-7 109 9 139 34 l21 17 -45 32 c-114 80 -112 179 3 286 122 114 287 139 383
59 58 -49 74 -130 37 -191 -23 -38 -34 -37 -19 3 13 35 13 82 -1 108 -16 29
-86 58 -145 58 -60 0 -127 -38 -159 -92 -29 -49 -27 -165 4 -235 27 -62 92
-125 146 -143 59 -19 113 -7 236 53 127 63 199 82 266 72 84 -12 79 -19 -26
-36 -233 -38 -386 -175 -296 -264 43 -44 89 -33 209 48 89 60 201 108 266 114
50 5 60 3 80 -17 19 -19 22 -30 18 -80 -4 -52 -9 -64 -46 -104 -23 -25 -42
-48 -42 -51 0 -38 92 -85 128 -66 37 20 62 129 62 276 0 149 -38 256 -124 352
-45 50 -81 79 -301 240 -123 91 -241 207 -303 300 -42 61 -122 217 -136 264
l-8 24 -8 -25 c-14 -43 -11 -194 5 -245 16 -56 13 -67 -9 -33 -41 63 -109 328
-143 552 l-17 119 -41 18 c-48 22 -84 24 -109 6z"/>
<path d="M8936 7745 c-44 -15 -56 -29 -56 -65 0 -46 -49 -303 -79 -417 -34
-125 -65 -206 -89 -225 -14 -11 -15 -10 -7 7 22 54 35 144 29 204 -10 102 -17
112 -39 55 -54 -144 -149 -290 -260 -399 -40 -38 -143 -122 -230 -185 -229
-166 -290 -231 -338 -359 -37 -100 -26 -388 17 -447 29 -38 135 -9 144 41 2
10 -11 33 -31 54 -61 62 -75 136 -35 186 20 26 25 27 80 22 67 -6 198 -64 282
-124 94 -68 151 -79 191 -38 19 18 25 35 25 66 0 35 -6 47 -36 76 -69 65 -193
114 -324 129 l-65 7 50 15 c76 23 151 6 303 -67 140 -67 178 -74 247 -42 53
24 119 100 139 158 53 155 -25 303 -159 303 -64 0 -116 -20 -145 -57 -22 -28
-23 -52 -5 -123 l7 -25 -21 25 c-51 62 -30 160 46 214 82 58 206 44 324 -37
154 -105 173 -247 42 -324 l-45 -26 23 -18 c59 -44 152 -48 203 -8 41 32 56
71 57 146 l1 68 19 -40 c28 -58 22 -154 -11 -191 -49 -53 -133 -68 -215 -39
-55 20 -58 19 -41 -12 22 -42 96 -110 138 -128 47 -19 145 -19 191 0 50 21
104 71 128 117 79 154 -21 335 -264 480 -93 56 -96 58 -47 42 72 -24 171 -87
313 -201 72 -58 150 -114 172 -124 76 -35 135 -21 194 47 30 34 31 37 14 49
-76 52 -401 250 -436 265 -23 11 -63 22 -87 26 -39 6 -41 8 -20 16 30 11 122
-12 197 -51 32 -16 117 -61 188 -100 143 -78 232 -111 304 -111 92 0 201 48
201 89 0 13 -21 22 -97 40 -102 24 -347 100 -341 106 2 2 48 -7 103 -21 109
-26 261 -51 378 -60 62 -6 79 -4 106 12 55 33 102 155 69 181 -7 6 -105 13
-218 17 -254 9 -563 23 -695 33 -97 8 -93 8 110 14 165 6 227 12 289 28 186
49 270 169 182 257 -52 52 -89 48 -163 -17 -108 -95 -318 -179 -483 -193 -63
-6 -61 -5 48 24 195 52 340 119 404 187 25 27 26 30 16 86 -8 45 -7 67 4 101
14 44 14 45 -13 70 -15 15 -31 35 -34 46 -7 21 -25 28 -25 9 0 -6 -18 -42 -41
-81 -55 -94 -164 -207 -263 -272 -75 -50 -177 -106 -191 -106 -9 0 37 37 155
125 130 98 217 183 258 255 18 30 32 58 32 61 0 4 -35 6 -77 6 -54 0 -88 5
-110 16 l-31 17 -7 -30 c-10 -45 -80 -148 -148 -217 -34 -35 -65 -63 -69 -63
-5 0 16 29 46 64 68 80 103 141 127 217 24 78 24 81 -8 73 -14 -4 -42 -7 -61
-8 -33 -1 -35 -4 -56 -61 -21 -58 -124 -240 -132 -232 -2 2 21 65 51 140 64
159 69 204 29 236 -45 35 -112 22 -151 -28 -6 -9 -38 -119 -70 -246 -32 -126
-59 -222 -61 -213 -2 8 13 115 33 236 19 122 35 233 35 246 0 38 -44 46 -114
21z"/>
<path d="M6345 7700 c-28 -31 -24 -79 9 -107 15 -12 36 -23 46 -23 33 0 73 43
73 78 0 45 -28 72 -73 72 -24 0 -43 -7 -55 -20z"/>
<path d="M8577 7702 c-27 -30 -22 -87 9 -111 15 -12 34 -21 44 -21 10 0 29 9
44 21 32 25 37 86 8 112 -25 23 -85 22 -105 -1z"/>
<path d="M5035 7526 c-66 -30 -105 -102 -105 -193 1 -32 7 -71 15 -88 l13 -30
1 31 c2 57 75 104 163 104 45 0 68 27 68 82 0 75 -85 126 -155 94z"/>
<path d="M9913 7525 c-33 -14 -63 -59 -63 -95 0 -12 7 -34 15 -50 14 -27 21
-30 63 -30 73 -1 129 -31 151 -82 l18 -43 8 35 c26 112 -9 219 -85 258 -51 25
-63 26 -107 7z"/>
<path d="M6416 7507 c-35 -35 -35 -79 0 -106 15 -12 37 -21 49 -21 12 0 34 9
49 21 49 38 25 112 -41 125 -26 5 -37 1 -57 -19z"/>
<path d="M8516 7507 c-33 -33 -33 -71 -1 -102 30 -30 64 -32 99 -4 49 38 25
112 -41 125 -26 5 -37 1 -57 -19z"/>
<path d="M6491 7324 c-12 -15 -21 -34 -21 -44 0 -33 39 -70 74 -70 49 0 76 24
76 69 0 47 -24 71 -73 71 -27 0 -41 -7 -56 -26z"/>
<path d="M8427 7332 c-23 -25 -21 -78 3 -102 45 -45 123 -13 123 50 0 16 -8
39 -18 50 -24 26 -85 27 -108 2z"/>
<path d="M6635 7180 c-51 -20 -66 -76 -32 -115 47 -56 127 -27 127 45 0 54
-48 89 -95 70z"/>
<path d="M8343 7180 c-45 -18 -58 -93 -23 -125 47 -43 124 -7 122 56 -1 52
-52 87 -99 69z"/>
<path d="M6740 7000 c-59 -59 14 -154 89 -116 71 37 47 136 -34 136 -22 0 -43
-8 -55 -20z"/>
<path d="M8181 6994 c-29 -36 -26 -60 9 -96 25 -24 36 -29 58 -24 89 21 78
146 -12 146 -25 0 -40 -7 -55 -26z"/>
<path d="M6930 6893 c-51 -19 -69 -93 -32 -126 30 -27 87 -22 111 9 28 36 26
60 -8 95 -29 29 -42 33 -71 22z"/>
<path d="M8034 6877 c-55 -48 -25 -127 47 -127 67 0 94 76 44 125 -30 31 -56
32 -91 2z"/>
<path d="M7093 6788 c-33 -16 -48 -60 -31 -95 40 -85 174 -29 138 58 -20 46
-59 60 -107 37z"/>
<path d="M7865 6788 c-28 -16 -35 -28 -35 -65 0 -42 30 -73 70 -73 40 0 70 31
70 73 0 38 -7 50 -37 66 -27 14 -42 14 -68 -1z"/>
<path d="M7290 6727 c-53 -27 -52 -109 2 -131 55 -24 108 12 108 73 0 48 -65
82 -110 58z"/>
<path d="M7668 6725 c-52 -29 -43 -113 15 -134 28 -10 74 5 87 29 37 69 -34
142 -102 105z"/>
<path d="M7440 6626 c0 -85 -2 -96 -21 -110 -24 -17 -44 -12 -77 18 -27 24
-37 15 -48 -44 -12 -61 59 -150 121 -150 19 0 23 -7 29 -49 7 -56 43 -115 72
-119 37 -5 84 72 84 139 0 23 5 29 20 29 12 0 38 9 59 20 62 31 87 107 57 175
-12 26 -15 27 -21 12 -4 -10 -21 -25 -37 -33 -27 -14 -32 -14 -54 1 -23 15
-24 21 -24 110 l0 95 -80 0 -80 0 0 -94z"/>
<path d="M7450 6060 l0 -79 -77 -3 -78 -3 -3 -72 -3 -73 81 0 80 0 0 -190 0
-190 70 0 70 0 0 190 0 190 80 0 80 0 0 75 0 75 -80 0 -80 0 0 80 0 80 -70 0
-70 0 0 -80z"/>
<path d="M8140 4932 l0 -150 -97 -4 c-81 -3 -107 -9 -148 -30 -66 -34 -108
-80 -142 -153 -35 -77 -45 -230 -19 -316 49 -171 245 -225 375 -104 l46 43 -4
-44 -3 -44 81 0 81 0 -2 473 -3 472 -82 3 -83 3 0 -149z m-5 -422 c0 -120 -3
-140 -22 -177 -62 -116 -181 -111 -213 8 -16 59 -8 176 16 225 30 61 75 85
154 82 l65 -3 0 -135z"/>
<path d="M9500 4930 l0 -150 -79 0 c-114 0 -173 -22 -242 -90 -80 -78 -103
-141 -103 -280 0 -124 22 -188 84 -244 86 -78 220 -74 306 9 l44 42 0 -44 0
-43 75 0 75 0 0 475 0 475 -80 0 -80 0 0 -150z m-16 -286 c32 -12 17 -241 -21
-321 -31 -67 -114 -93 -166 -53 -38 30 -50 79 -45 184 4 105 26 152 81 180 32
15 121 22 151 10z"/>
<path d="M10560 4930 l0 -150 -80 0 c-146 0 -243 -57 -302 -178 -32 -64 -33
-71 -33 -187 0 -109 2 -125 26 -176 43 -91 124 -136 224 -126 64 7 110 29 151
74 l32 34 -5 -45 -6 -46 82 0 81 0 -2 473 -3 472 -82 3 -83 3 0 -151z m-2
-390 c4 -140 -9 -200 -57 -250 -28 -30 -46 -40 -69 -40 -85 0 -117 51 -117
185 0 105 20 155 75 193 29 19 45 22 100 20 l65 -3 3 -105z"/>
<path d="M11540 4605 l0 -475 80 0 80 0 0 475 0 475 -80 0 -80 0 0 -475z"/>
<path d="M4953 5046 c-61 -28 -75 -107 -27 -157 22 -23 36 -29 72 -29 90 0
134 94 75 160 -33 36 -76 45 -120 26z"/>
<path d="M7484 5050 c-12 -4 -31 -21 -44 -37 -17 -22 -21 -36 -17 -68 8 -53
44 -85 98 -85 52 0 86 24 100 69 24 80 -58 153 -137 121z"/>
<path d="M3340 4677 c0 -264 3 -333 16 -376 17 -59 70 -123 124 -151 86 -44
256 -51 362 -14 65 22 140 91 169 156 23 52 24 60 27 381 l3 327 -85 0 -86 0
0 -318 c0 -355 -2 -366 -71 -407 -51 -30 -171 -28 -220 3 -66 40 -69 61 -69
412 l0 310 -85 0 -85 0 0 -323z"/>
<path d="M4507 4780 c-56 -14 -90 -35 -126 -75 l-31 -36 0 51 0 50 -75 0 -75
0 0 -320 0 -320 79 0 79 0 4 188 c3 184 4 188 32 239 32 58 61 82 111 90 27 4
39 0 59 -20 l26 -26 0 -236 0 -235 85 0 85 0 0 253 c-1 263 -6 304 -47 349
-40 45 -131 66 -206 48z"/>
<path d="M6030 4780 c-149 -31 -237 -172 -228 -364 8 -182 81 -269 246 -298
71 -12 176 -3 265 22 l38 11 -7 62 c-4 34 -7 63 -8 64 -1 1 -24 -5 -51 -14
-28 -8 -86 -16 -130 -17 -67 -1 -86 3 -116 22 -41 25 -69 74 -69 121 l0 31
200 0 200 0 0 73 c0 87 -11 128 -49 189 -50 79 -176 121 -291 98z m140 -147
c16 -16 33 -43 36 -60 l7 -33 -122 0 c-66 0 -121 2 -121 5 0 3 6 20 14 39 32
78 127 102 186 49z"/>
<path d="M6769 4780 c-41 -12 -79 -40 -105 -79 l-24 -36 0 53 0 52 -75 0 -75
0 0 -320 0 -320 79 0 79 0 4 183 c4 157 7 188 25 229 25 55 60 80 111 82 44 1
50 13 51 104 1 58 0 62 -21 61 -13 0 -35 -4 -49 -9z"/>
<path d="M7085 4780 c-131 -27 -195 -93 -195 -200 0 -97 34 -139 146 -181 77
-29 103 -46 110 -74 18 -71 -93 -105 -223 -69 -22 6 -23 4 -23 -64 l0 -70 75
-7 c126 -12 238 19 297 82 35 37 48 73 48 137 0 92 -28 119 -209 199 -43 19
-58 48 -47 85 10 31 57 44 138 41 l73 -4 3 61 3 61 -62 7 c-71 7 -80 7 -134
-4z"/>
<path d="M8601 4780 c-29 -4 -73 -14 -97 -20 l-43 -12 6 -67 c3 -36 7 -67 7
-68 1 -2 24 6 52 16 69 27 155 36 198 21 45 -14 66 -44 66 -91 l0 -36 -67 -7
c-149 -15 -255 -74 -289 -161 -32 -86 -3 -184 67 -220 81 -42 205 -22 271 45
l38 38 0 -44 0 -44 76 0 75 0 -3 258 c-3 236 -5 260 -23 297 -40 78 -183 119
-334 95z m189 -402 c0 -68 -70 -138 -137 -138 -58 0 -91 58 -63 110 19 35 78
57 158 59 41 1 42 0 42 -31z"/>
<path d="M11080 4780 c-95 -20 -182 -103 -212 -203 -7 -23 -13 -89 -13 -147 1
-87 4 -113 23 -155 43 -94 103 -137 220 -157 71 -12 176 -3 265 22 l39 11 -7
62 c-4 34 -8 63 -9 64 -1 1 -24 -5 -51 -14 -75 -23 -202 -23 -243 2 -36 21
-72 86 -72 128 l0 27 200 0 200 0 1 38 c3 119 -12 180 -58 240 -49 65 -180
103 -283 82z m139 -141 c12 -11 26 -32 32 -46 20 -52 18 -53 -111 -53 -66 0
-120 2 -120 5 0 21 32 75 55 93 38 30 112 30 144 1z"/>
<path d="M4910 4450 l0 -320 85 0 85 0 0 320 0 320 -85 0 -85 0 0 -320z"/>
<path d="M5183 4682 c17 -49 70 -193 117 -320 l85 -232 86 0 c74 0 88 3 94 18
4 9 53 141 110 292 57 151 108 287 114 303 l11 27 -89 0 -89 0 -55 -157 c-30
-87 -63 -185 -72 -217 l-18 -60 -23 80 c-13 43 -46 140 -72 214 l-49 135 -91
3 -92 3 33 -89z"/>
<path d="M7440 4450 l0 -320 85 0 85 0 0 320 0 320 -85 0 -85 0 0 -320z"/>
<path d="M9880 3761 c-105 -34 -160 -106 -160 -211 0 -63 17 -106 61 -149 44
-44 89 -62 155 -62 178 0 280 178 188 328 -47 75 -164 120 -244 94z"/>
<path d="M3353 3653 c-10 -4 -13 -202 -13 -944 l0 -939 180 0 180 0 0 391 c0
313 3 389 13 381 6 -6 127 -182 267 -391 l255 -380 227 -1 227 0 -223 313
c-122 171 -257 359 -299 416 l-77 105 73 21 c255 74 400 259 401 510 0 278
-143 447 -427 506 -80 16 -135 19 -432 18 -187 0 -346 -3 -352 -6z m602 -294
c110 -20 184 -73 215 -154 7 -17 12 -61 13 -100 1 -126 -53 -208 -173 -264
-48 -22 -72 -26 -182 -29 l-128 -4 0 275 0 276 28 4 c57 8 170 7 227 -4z"/>
<path d="M6687 3179 c-91 -12 -206 -51 -270 -93 -141 -90 -213 -248 -187 -412
27 -170 93 -236 326 -325 190 -73 227 -103 227 -185 0 -111 -115 -164 -315
-143 -51 5 -119 15 -150 23 l-58 13 0 -57 c0 -31 -3 -97 -6 -147 l-7 -90 90
-12 c393 -50 688 53 791 277 38 83 43 222 11 307 -44 117 -131 183 -363 275
-163 65 -213 128 -170 217 31 62 93 87 214 85 54 0 128 -8 165 -17 37 -8 69
-14 70 -13 1 2 5 65 8 140 7 159 21 142 -132 158 -116 11 -147 11 -244 -1z"/>
<path d="M7815 3184 c-139 -13 -368 -63 -389 -84 -5 -5 -4 -66 4 -150 11 -122
15 -141 29 -136 9 3 61 21 116 40 123 43 226 60 327 53 163 -11 228 -79 228
-239 l0 -58 -72 0 c-94 0 -244 -23 -333 -51 -171 -53 -299 -148 -357 -267 -29
-58 -33 -77 -36 -166 -3 -83 0 -111 17 -160 34 -98 95 -158 201 -200 59 -24
202 -32 282 -17 126 25 250 105 304 197 14 24 27 44 28 44 1 0 0 -50 -2 -110
l-4 -110 166 0 166 0 0 478 c0 262 -5 511 -10 552 -33 260 -181 370 -515 383
-60 3 -128 3 -150 1z m311 -866 c-12 -121 -89 -238 -183 -280 -143 -63 -273
-4 -273 125 0 61 20 100 71 137 69 49 178 76 323 79 l69 1 -7 -62z"/>
<path d="M9454 3180 c-109 -22 -212 -105 -278 -226 l-37 -69 5 45 c3 25 8 87
12 138 l7 92 -172 0 -171 0 0 -695 0 -695 180 0 180 0 0 333 c0 182 5 364 10
402 21 149 68 244 148 300 40 27 52 30 138 33 l94 4 0 61 c0 34 3 113 7 175
l6 112 -44 -1 c-24 -1 -63 -5 -85 -9z"/>
<path d="M5231 3159 c-127 -33 -216 -83 -306 -174 -156 -155 -227 -365 -212
-620 20 -326 163 -529 422 -601 33 -9 116 -18 185 -21 105 -4 139 -2 214 16
350 84 555 391 533 795 -8 136 -27 216 -77 321 -70 146 -212 253 -385 290
-101 21 -282 19 -374 -6z m305 -307 c110 -56 164 -183 164 -381 -1 -202 -62
-335 -184 -399 -43 -22 -63 -26 -131 -26 -162 1 -251 83 -289 267 -53 256 31
490 197 551 60 22 189 16 243 -12z"/>
<path d="M10880 3164 c-83 -18 -211 -80 -277 -134 -102 -84 -178 -203 -225
-350 -21 -67 -23 -94 -23 -255 0 -141 4 -194 18 -245 83 -305 302 -452 651
-438 204 9 335 65 471 202 96 96 152 200 186 341 18 78 20 110 16 245 -6 172
-18 233 -74 349 -68 143 -206 246 -380 285 -89 20 -273 20 -363 0z m244 -295
c86 -24 147 -86 181 -185 39 -114 36 -326 -6 -438 -25 -69 -95 -147 -157 -177
-36 -18 -64 -24 -122 -24 -179 0 -276 110 -300 337 -16 160 14 301 85 394 65
85 204 125 319 93z"/>
<path d="M9760 2465 l0 -695 180 0 180 0 -2 693 -3 692 -177 3 -178 2 0 -695z"/>
</g>
</svg>
